# xmcd
#
# Track frame offsets: 
#        150
#        22425
#        44660
#        68602
#        88995
#        103835
#        124042
#        147455
#        161407
#        183197
#
# Disc length: 2689 seconds
#
# Revision: 7
# Processed by: cddbd v1.5.1PL0 Copyright (c) Steve Scherf et al.
# Submitted via: ExactAudioCopy v0.95a5
#
DISCID=920a7f0a
DTITLE=许景淳 - 纯・景淳
DYEAR=1997
DGENRE=Pop
TTITLE0=我愿意
TTITLE1=最爱
TTITLE2=秋意浓
TTITLE3=我只在乎你
TTITLE4=滚滚红尘
TTITLE5=潮骚
TTITLE6=你是我所有的回忆
TTITLE7=花心
TTITLE8=我站在全世界的屋顶
TTITLE9=晚安曲
EXTD=YEAR: 1997
EXTT0=
EXTT1=
EXTT2=
EXTT3=
EXTT4=
EXTT5=
EXTT6=
EXTT7=
EXTT8=
EXTT9=
PLAYORDER=
